<svg width="1580" height="749" xmlns="http://www.w3.org/2000/svg" xmlns:xlink="http://www.w3.org/1999/xlink" overflow="hidden"><defs><clipPath id="clip0"><rect x="-22" y="-8" width="1580" height="749"/></clipPath></defs><g clip-path="url(#clip0)" transform="translate(22 8)"><path d="M310 64.3346C310 30.4604 337.46 3 371.335 3L616.665 3C650.54 3 678 30.4604 678 64.3346L678 673.665C678 707.539 650.54 735 616.665 735L371.335 735C337.46 735 310 707.539 310 673.665Z" stroke="#FFC000" stroke-width="8" stroke-miterlimit="8" fill="#FFFFFF" fill-rule="evenodd"/><path d="M-18 49.1676C-18 23.6699 2.67 3 28.1677 3L212.832 3C238.33 3 259 23.6699 259 49.1676L259 689.832C259 715.33 238.33 736 212.832 736L28.1677 736C2.67 736-18 715.33-18 689.832Z" stroke="#70AD47" stroke-width="8" stroke-miterlimit="8" fill="#FFFFFF" fill-rule="evenodd"/><path d="M23 655.667C23 650.88 26.8803 647 31.6669 647L214.333 647C219.12 647 223 650.88 223 655.667L223 690.333C223 695.12 219.12 699 214.333 699L31.6669 699C26.8803 699 23 695.12 23 690.333Z" fill="#5B9BD5" fill-rule="evenodd"/><text fill="#FFFFFF" font-family="Arial,Arial_MSFontService,sans-serif" font-weight="700" font-size="24" transform="translate(38.7025 682)">Clone Relation</text><path d="M23 79.6669C23 74.8803 26.8803 71 31.6669 71L214.333 71C219.12 71 223 74.8803 223 79.6669L223 114.333C223 119.12 219.12 123 214.333 123L31.6669 123C26.8803 123 23 119.12 23 114.333Z" fill="#5B9BD5" fill-rule="evenodd"/><text fill="#FFFFFF" font-family="Arial,Arial_MSFontService,sans-serif" font-weight="700" font-size="32" transform="translate(74.6191 109)">Scalar</text><path d="M23 195.667C23 190.88 26.8803 187 31.6669 187L214.333 187C219.12 187 223 190.88 223 195.667L223 230.333C223 235.12 219.12 239 214.333 239L31.6669 239C26.8803 239 23 235.12 23 230.333Z" fill="#5B9BD5" fill-rule="evenodd"/><text fill="#FFFFFF" font-family="Arial,Arial_MSFontService,sans-serif" font-weight="700" font-size="32" transform="translate(83.7025 224)">Food</text><path d="M22 309.834C22 304.955 25.9549 301 30.8336 301L213.166 301C218.045 301 222 304.955 222 309.834L222 345.166C222 350.045 218.045 354 213.166 354L30.8336 354C25.9549 354 22 350.045 22 345.166Z" fill="#5B9BD5" fill-rule="evenodd"/><text fill="#FFFFFF" font-family="Arial,Arial_MSFontService,sans-serif" font-weight="700" font-size="24" transform="translate(41.781 336)">Food Relation</text><path d="M22 425.667C22 420.88 25.8803 417 30.6669 417L213.333 417C218.12 417 222 420.88 222 425.667L222 460.333C222 465.12 218.12 469 213.333 469L30.6669 469C25.8803 469 22 465.12 22 460.333Z" fill="#5B9BD5" fill-rule="evenodd"/><text fill="#FFFFFF" font-family="Arial,Arial_MSFontService,sans-serif" font-weight="700" font-size="24" transform="translate(37.1143 452)">Thorn Relation</text><path d="M22 540.834C22 535.955 25.9549 532 30.8336 532L213.166 532C218.045 532 222 535.955 222 540.834L222 576.166C222 581.045 218.045 585 213.166 585L30.8336 585C25.9549 585 22 581.045 22 576.166Z" fill="#5B9BD5" fill-rule="evenodd"/><text fill="#FFFFFF" font-family="Arial,Arial_MSFontService,sans-serif" font-weight="700" font-size="32" transform="translate(77.3643 570)">Clone<tspan fill="#000000" font-family="DengXian,DengXian_MSFontService,sans-serif" font-size="43" x="-8.61911" y="-523">Input</tspan></text><rect x="371" y="160" width="76" height="105" stroke="#2F528F" stroke-width="6" stroke-miterlimit="8" fill="none"/><text font-family="Arial,Arial_MSFontService,sans-serif" font-weight="700" font-size="12" transform="translate(381.627 183)">ResBlock</text><rect x="384.5" y="191.5" width="49" height="12" stroke="#2F528F" stroke-width="1.33333" stroke-miterlimit="8" fill="#4472C4"/><text fill="#FFFFFF" font-family="DengXian,DengXian_MSFontService,sans-serif" font-weight="700" font-size="9" transform="translate(398.334 200)">conv</text><path d="M0.123797 0.309492-1.4387 0.934492-1.30941 0.84193-2.80941 2.59193-2.76575 2.52683-4.14075 5.21433-4.12297 5.17286-5.37297 8.73536-5.3647 8.70814-6.4272 12.8331-6.42169 12.8077-7.23419 17.4327-7.23126 17.4123-7.79376 22.4123-7.79189 22.3872-7.97939 27.5122-7.98116 27.4636-7.41866 32.5886-7.43299 32.522-5.80799 37.522-5.83343 37.4635-3.27093 42.0885-3.30107 42.0432 0.0114277 46.2307-0.0265713 46.1901 3.84843 49.6901 3.8013 49.6546 8.1138 52.3421 8.03633 52.3067 10.97 53.2174 10.7723 53.854 7.79765 52.9306 3.42356 50.2047-0.494125 46.6662-3.84085 42.4354-6.4321 37.7585-8.0776 32.6954-8.6465 27.5122-8.45765 22.3502-7.89259 17.3275-7.07605 12.6795-6.00675 8.52807-4.74455 4.9308-3.34127 2.18804-1.76231 0.345912-0.123797-0.309492ZM10.4489 49.3405 17.375 55 8.69178 57.1452Z" fill="#4472C4" transform="matrix(-1 0 0 1 433.858 197.5)"/><path d="M401.5 252C401.5 247.858 404.858 244.5 409 244.5 413.142 244.5 416.5 247.858 416.5 252 416.5 256.142 413.142 259.5 409 259.5 404.858 259.5 401.5 256.142 401.5 252Z" stroke="#2F528F" stroke-width="1.33333" stroke-miterlimit="8" fill="#4472C4" fill-rule="evenodd"/><text fill="#FFFFFF" font-family="DengXian,DengXian_MSFontService,sans-serif" font-weight="400" font-size="24" transform="translate(400.334 259)">+</text><rect x="384.5" y="218.5" width="49" height="12" stroke="#2F528F" stroke-width="1.33333" stroke-miterlimit="8" fill="#4472C4"/><text fill="#FFFFFF" font-family="DengXian,DengXian_MSFontService,sans-serif" font-weight="700" font-size="9" transform="translate(398.334 228)">conv</text><path d="M0-0.333333 2.9375-0.333333 5.5-0.333333 7.25-0.333333 9.14583-0.333333 9.14583 0.333333 7.25 0.333333 5.5 0.333333 2.9375 0.333333 0 0.333333ZM7.8125-4 15.8125 0 7.8125 4Z" fill="#4472C4" transform="matrix(1.83697e-16 1 1 -1.83697e-16 408.5 203.5)"/><path d="M408.834 230.5 408.834 233.125 408.834 235.438 408.834 238.146 408.167 238.146 408.167 235.438 408.167 233.125 408.167 230.5ZM412.5 236.812 408.5 244.812 404.5 236.812Z" fill="#4472C4"/><path d="M2.11906e-06-3 133.632-2.99991 133.632 3.00009-2.11906e-06 3ZM130.632-8.99991 148.632 0.000104987 130.632 9.00009Z" fill="#00B0F0" transform="matrix(1 0 0 -1 223 213)"/><rect x="476" y="160" width="75" height="105" stroke="#2F528F" stroke-width="6" stroke-miterlimit="8" fill="none"/><text font-family="Arial,Arial_MSFontService,sans-serif" font-weight="700" font-size="12" transform="translate(486.318 183)">ResBlock</text><rect x="488.5" y="191.5" width="50" height="12" stroke="#2F528F" stroke-width="1.33333" stroke-miterlimit="8" fill="#4472C4"/><text fill="#FFFFFF" font-family="DengXian,DengXian_MSFontService,sans-serif" font-weight="700" font-size="9" transform="translate(503.025 200)">conv</text><path d="M0.123797 0.309492-1.4387 0.934492-1.30941 0.84193-2.80941 2.59193-2.76575 2.52683-4.14075 5.21433-4.12297 5.17286-5.37297 8.73536-5.3647 8.70814-6.4272 12.8331-6.42169 12.8077-7.23419 17.4327-7.23126 17.4123-7.79376 22.4123-7.79189 22.3872-7.97939 27.5122-7.98116 27.4636-7.41866 32.5886-7.43299 32.522-5.80799 37.522-5.83343 37.4635-3.27093 42.0885-3.30107 42.0432 0.0114277 46.2307-0.0265713 46.1901 3.84843 49.6901 3.8013 49.6546 8.1138 52.3421 8.03633 52.3067 10.97 53.2174 10.7723 53.854 7.79765 52.9306 3.42356 50.2047-0.494125 46.6662-3.84085 42.4354-6.4321 37.7585-8.0776 32.6954-8.6465 27.5122-8.45765 22.3502-7.89259 17.3275-7.07605 12.6795-6.00675 8.52807-4.74455 4.9308-3.34127 2.18804-1.76231 0.345912-0.123797-0.309492ZM10.4489 49.3405 17.375 55 8.69178 57.1452Z" fill="#4472C4" transform="matrix(-1 0 0 1 537.858 197.5)"/><path d="M506.5 252C506.5 247.858 509.634 244.5 513.5 244.5 517.366 244.5 520.5 247.858 520.5 252 520.5 256.142 517.366 259.5 513.5 259.5 509.634 259.5 506.5 256.142 506.5 252Z" stroke="#2F528F" stroke-width="1.33333" stroke-miterlimit="8" fill="#4472C4" fill-rule="evenodd"/><text fill="#FFFFFF" font-family="DengXian,DengXian_MSFontService,sans-serif" font-weight="400" font-size="24" transform="translate(505.025 259)">+</text><rect x="488.5" y="218.5" width="50" height="12" stroke="#2F528F" stroke-width="1.33333" stroke-miterlimit="8" fill="#4472C4"/><text fill="#FFFFFF" font-family="DengXian,DengXian_MSFontService,sans-serif" font-weight="700" font-size="9" transform="translate(503.025 228)">conv</text><path d="M0-0.333333 2.9375-0.333333 5.5-0.333333 7.25-0.333333 9.14583-0.333333 9.14583 0.333333 7.25 0.333333 5.5 0.333333 2.9375 0.333333 0 0.333333ZM7.8125-4 15.8125 0 7.8125 4Z" fill="#4472C4" transform="matrix(1.83697e-16 1 1 -1.83697e-16 513.5 203.5)"/><path d="M513.833 230.5 513.833 233.125 513.833 235.438 513.833 238.146 513.167 238.146 513.167 235.438 513.167 233.125 513.167 230.5ZM517.5 236.812 513.5 244.812 509.5 236.812Z" fill="#4472C4"/><rect x="581" y="160" width="75" height="105" stroke="#2F528F" stroke-width="6" stroke-miterlimit="8" fill="none"/><text font-family="Arial,Arial_MSFontService,sans-serif" font-weight="700" font-size="12" transform="translate(591.008 183)">ResBlock</text><rect x="593.5" y="191.5" width="49" height="12" stroke="#2F528F" stroke-width="1.33333" stroke-miterlimit="8" fill="#4472C4"/><text fill="#FFFFFF" font-family="DengXian,DengXian_MSFontService,sans-serif" font-weight="700" font-size="9" transform="translate(607.716 200)">conv</text><path d="M0.123797 0.309492-1.4387 0.934492-1.30941 0.84193-2.80941 2.59193-2.76575 2.52683-4.14075 5.21433-4.12297 5.17286-5.37297 8.73536-5.3647 8.70814-6.4272 12.8331-6.42169 12.8077-7.23419 17.4327-7.23126 17.4123-7.79376 22.4123-7.79189 22.3872-7.97939 27.5122-7.98116 27.4636-7.41866 32.5886-7.43299 32.522-5.80799 37.522-5.83343 37.4635-3.27093 42.0885-3.30107 42.0432 0.0114277 46.2307-0.0265713 46.1901 3.84843 49.6901 3.8013 49.6546 8.1138 52.3421 8.03633 52.3067 10.97 53.2174 10.7723 53.854 7.79765 52.9306 3.42356 50.2047-0.494125 46.6662-3.84085 42.4354-6.4321 37.7585-8.0776 32.6954-8.6465 27.5122-8.45765 22.3502-7.89259 17.3275-7.07605 12.6795-6.00675 8.52807-4.74455 4.9308-3.34127 2.18804-1.76231 0.345912-0.123797-0.309492ZM10.4489 49.3405 17.375 55 8.69178 57.1452Z" fill="#4472C4" transform="matrix(-1 0 0 1 642.858 197.5)"/><path d="M610.5 252C610.5 247.858 613.858 244.5 618 244.5 622.142 244.5 625.5 247.858 625.5 252 625.5 256.142 622.142 259.5 618 259.5 613.858 259.5 610.5 256.142 610.5 252Z" stroke="#2F528F" stroke-width="1.33333" stroke-miterlimit="8" fill="#4472C4" fill-rule="evenodd"/><text fill="#FFFFFF" font-family="DengXian,DengXian_MSFontService,sans-serif" font-weight="400" font-size="24" transform="translate(609.716 259)">+</text><rect x="593.5" y="218.5" width="49" height="12" stroke="#2F528F" stroke-width="1.33333" stroke-miterlimit="8" fill="#4472C4"/><text fill="#FFFFFF" font-family="DengXian,DengXian_MSFontService,sans-serif" font-weight="700" font-size="9" transform="translate(607.716 228)">conv</text><path d="M0-0.333333 2.9375-0.333333 5.5-0.333333 7.25-0.333333 9.14583-0.333333 9.14583 0.333333 7.25 0.333333 5.5 0.333333 2.9375 0.333333 0 0.333333ZM7.8125-4 15.8125 0 7.8125 4Z" fill="#4472C4" transform="matrix(1.83697e-16 1 1 -1.83697e-16 618.5 203.5)"/><path d="M618.833 230.5 618.833 233.125 618.833 235.438 618.833 238.146 618.167 238.146 618.167 235.438 618.167 233.125 618.167 230.5ZM622.5 236.812 618.5 244.812 614.5 236.812Z" fill="#4472C4"/><path d="M447 210 461.591 210 461.591 216 447 216ZM458.591 204 476.591 213 458.591 222Z" fill="#2F5597"/><path d="M551 210 565.591 210 565.591 216 551 216ZM562.591 204 580.591 213 562.591 222Z" fill="#2F5597"/><rect x="375" y="62" width="138" height="73" stroke="#2F528F" stroke-width="6" stroke-miterlimit="8" fill="none"/><path d="M440.5 78.5001C440.5 74.0818 444.306 70.5001 449 70.5001 453.694 70.5001 457.5 74.0818 457.5 78.5001 457.5 82.9183 453.694 86.5001 449 86.5001 444.306 86.5001 440.5 82.9183 440.5 78.5001Z" stroke="#2F528F" stroke-width="3" stroke-miterlimit="8" fill="none" fill-rule="evenodd"/><path d="M440.5 99.5001C440.5 95.0818 444.306 91.5001 449 91.5001 453.694 91.5001 457.5 95.0818 457.5 99.5001 457.5 103.918 453.694 107.5 449 107.5 444.306 107.5 440.5 103.918 440.5 99.5001Z" stroke="#2F528F" stroke-width="3" stroke-miterlimit="8" fill="none" fill-rule="evenodd"/><path d="M440.5 119.5C440.5 115.082 444.306 111.5 449 111.5 453.694 111.5 457.5 115.082 457.5 119.5 457.5 123.918 453.694 127.5 449 127.5 444.306 127.5 440.5 123.918 440.5 119.5Z" stroke="#2F528F" stroke-width="3" stroke-miterlimit="8" fill="none" fill-rule="evenodd"/><path d="M463.5 78.5001C463.5 74.0818 467.082 70.5001 471.5 70.5001 475.918 70.5001 479.5 74.0818 479.5 78.5001 479.5 82.9183 475.918 86.5001 471.5 86.5001 467.082 86.5001 463.5 82.9183 463.5 78.5001Z" stroke="#2F528F" stroke-width="3" stroke-miterlimit="8" fill="none" fill-rule="evenodd"/><path d="M463.5 99.5001C463.5 95.0818 467.082 91.5001 471.5 91.5001 475.918 91.5001 479.5 95.0818 479.5 99.5001 479.5 103.918 475.918 107.5 471.5 107.5 467.082 107.5 463.5 103.918 463.5 99.5001Z" stroke="#2F528F" stroke-width="3" stroke-miterlimit="8" fill="none" fill-rule="evenodd"/><path d="M463.5 119.5C463.5 115.082 467.082 111.5 471.5 111.5 475.918 111.5 479.5 115.082 479.5 119.5 479.5 123.918 475.918 127.5 471.5 127.5 467.082 127.5 463.5 123.918 463.5 119.5Z" stroke="#2F528F" stroke-width="3" stroke-miterlimit="8" fill="none" fill-rule="evenodd"/><path d="M486.5 78.5001C486.5 74.0818 490.082 70.5001 494.5 70.5001 498.918 70.5001 502.5 74.0818 502.5 78.5001 502.5 82.9183 498.918 86.5001 494.5 86.5001 490.082 86.5001 486.5 82.9183 486.5 78.5001Z" stroke="#2F528F" stroke-width="3" stroke-miterlimit="8" fill="none" fill-rule="evenodd"/><path d="M486.5 99.5001C486.5 95.0818 490.082 91.5001 494.5 91.5001 498.918 91.5001 502.5 95.0818 502.5 99.5001 502.5 103.918 498.918 107.5 494.5 107.5 490.082 107.5 486.5 103.918 486.5 99.5001Z" stroke="#2F528F" stroke-width="3" stroke-miterlimit="8" fill="none" fill-rule="evenodd"/><path d="M486.5 119.5C486.5 115.082 490.082 111.5 494.5 111.5 498.918 111.5 502.5 115.082 502.5 119.5 502.5 123.918 498.918 127.5 494.5 127.5 490.082 127.5 486.5 123.918 486.5 119.5Z" stroke="#2F528F" stroke-width="3" stroke-miterlimit="8" fill="none" fill-rule="evenodd"/><path d="M457.5 78.5001 463.86 99.0702" stroke="#2F5597" stroke-width="1.33333" stroke-miterlimit="8" fill="none" fill-rule="evenodd"/><path d="M457.5 99.5001 463.86 99.5002" stroke="#2F5597" stroke-width="1.33333" stroke-miterlimit="8" fill="none" fill-rule="evenodd"/><path d="M457.5 78.5001 463.86 78.5002" stroke="#2F5597" stroke-width="1.33333" stroke-miterlimit="8" fill="none" fill-rule="evenodd"/><path d="M0 0 6.35979 21.1332" stroke="#2F5597" stroke-width="1.33333" stroke-miterlimit="8" fill="none" fill-rule="evenodd" transform="matrix(1 0 0 -1 457.5 99.6333)"/><path d="M0 0 6.35979 20.5702" stroke="#2F5597" stroke-width="1.33333" stroke-miterlimit="8" fill="none" fill-rule="evenodd" transform="matrix(-1 0 0 1 463.86 99.5001)"/><path d="M457.5 99.5001 463.86 120.07" stroke="#2F5597" stroke-width="1.33333" stroke-miterlimit="8" fill="none" fill-rule="evenodd"/><path d="M457.5 119.5 463.86 119.5" stroke="#2F5597" stroke-width="1.33333" stroke-miterlimit="8" fill="none" fill-rule="evenodd"/><path d="M457.5 78.5001 463.86 119.64" stroke="#2F5597" stroke-width="1.33333" stroke-miterlimit="8" fill="none" fill-rule="evenodd"/><path d="M0 0 6.35979 41.1403" stroke="#2F5597" stroke-width="1.33333" stroke-miterlimit="8" fill="none" fill-rule="evenodd" transform="matrix(1 0 0 -1 457.5 119.64)"/><path d="M479.5 78.5001 485.86 99.0702" stroke="#2F5597" stroke-width="1.33333" stroke-miterlimit="8" fill="none" fill-rule="evenodd"/><path d="M479.5 99.5001 485.86 99.5002" stroke="#2F5597" stroke-width="1.33333" stroke-miterlimit="8" fill="none" fill-rule="evenodd"/><path d="M479.5 78.5001 485.86 78.5002" stroke="#2F5597" stroke-width="1.33333" stroke-miterlimit="8" fill="none" fill-rule="evenodd"/><path d="M0 0 6.35979 21.1332" stroke="#2F5597" stroke-width="1.33333" stroke-miterlimit="8" fill="none" fill-rule="evenodd" transform="matrix(1 0 0 -1 479.5 99.6333)"/><path d="M0 0 6.35979 20.5702" stroke="#2F5597" stroke-width="1.33333" stroke-miterlimit="8" fill="none" fill-rule="evenodd" transform="matrix(-1 0 0 1 485.86 99.5001)"/><path d="M479.5 99.5001 485.86 120.07" stroke="#2F5597" stroke-width="1.33333" stroke-miterlimit="8" fill="none" fill-rule="evenodd"/><path d="M479.5 119.5 485.86 119.5" stroke="#2F5597" stroke-width="1.33333" stroke-miterlimit="8" fill="none" fill-rule="evenodd"/><path d="M479.5 78.5001 485.86 119.64" stroke="#2F5597" stroke-width="1.33333" stroke-miterlimit="8" fill="none" fill-rule="evenodd"/><path d="M0 0 6.35979 41.1403" stroke="#2F5597" stroke-width="1.33333" stroke-miterlimit="8" fill="none" fill-rule="evenodd" transform="matrix(1 0 0 -1 479.5 119.64)"/><text font-family="Arial,Arial_MSFontService,sans-serif" font-weight="700" font-size="24" transform="translate(381.578 107)">MLP</text><rect x="375" y="291" width="138" height="73" stroke="#2F528F" stroke-width="6" stroke-miterlimit="8" fill="none"/><path d="M440.5 308C440.5 303.306 444.306 299.5 449 299.5 453.694 299.5 457.5 303.306 457.5 308 457.5 312.694 453.694 316.5 449 316.5 444.306 316.5 440.5 312.694 440.5 308Z" stroke="#2F528F" stroke-width="3" stroke-miterlimit="8" fill="none" fill-rule="evenodd"/><path d="M440.5 328.5C440.5 324.082 444.306 320.5 449 320.5 453.694 320.5 457.5 324.082 457.5 328.5 457.5 332.918 453.694 336.5 449 336.5 444.306 336.5 440.5 332.918 440.5 328.5Z" stroke="#2F528F" stroke-width="3" stroke-miterlimit="8" fill="none" fill-rule="evenodd"/><path d="M440.5 349C440.5 344.306 444.306 340.5 449 340.5 453.694 340.5 457.5 344.306 457.5 349 457.5 353.694 453.694 357.5 449 357.5 444.306 357.5 440.5 353.694 440.5 349Z" stroke="#2F528F" stroke-width="3" stroke-miterlimit="8" fill="none" fill-rule="evenodd"/><path d="M463.5 308C463.5 303.306 467.082 299.5 471.5 299.5 475.918 299.5 479.5 303.306 479.5 308 479.5 312.694 475.918 316.5 471.5 316.5 467.082 316.5 463.5 312.694 463.5 308Z" stroke="#2F528F" stroke-width="3" stroke-miterlimit="8" fill="none" fill-rule="evenodd"/><path d="M463.5 328.5C463.5 324.082 467.082 320.5 471.5 320.5 475.918 320.5 479.5 324.082 479.5 328.5 479.5 332.918 475.918 336.5 471.5 336.5 467.082 336.5 463.5 332.918 463.5 328.5Z" stroke="#2F528F" stroke-width="3" stroke-miterlimit="8" fill="none" fill-rule="evenodd"/><path d="M463.5 349C463.5 344.306 467.082 340.5 471.5 340.5 475.918 340.5 479.5 344.306 479.5 349 479.5 353.694 475.918 357.5 471.5 357.5 467.082 357.5 463.5 353.694 463.5 349Z" stroke="#2F528F" stroke-width="3" stroke-miterlimit="8" fill="none" fill-rule="evenodd"/><path d="M486.5 308C486.5 303.306 490.082 299.5 494.5 299.5 498.918 299.5 502.5 303.306 502.5 308 502.5 312.694 498.918 316.5 494.5 316.5 490.082 316.5 486.5 312.694 486.5 308Z" stroke="#2F528F" stroke-width="3" stroke-miterlimit="8" fill="none" fill-rule="evenodd"/><path d="M486.5 328.5C486.5 324.082 490.082 320.5 494.5 320.5 498.918 320.5 502.5 324.082 502.5 328.5 502.5 332.918 498.918 336.5 494.5 336.5 490.082 336.5 486.5 332.918 486.5 328.5Z" stroke="#2F528F" stroke-width="3" stroke-miterlimit="8" fill="none" fill-rule="evenodd"/><path d="M486.5 349C486.5 344.306 490.082 340.5 494.5 340.5 498.918 340.5 502.5 344.306 502.5 349 502.5 353.694 498.918 357.5 494.5 357.5 490.082 357.5 486.5 353.694 486.5 349Z" stroke="#2F528F" stroke-width="3" stroke-miterlimit="8" fill="none" fill-rule="evenodd"/><path d="M457.5 307.5 463.86 328.07" stroke="#2F5597" stroke-width="1.33333" stroke-miterlimit="8" fill="none" fill-rule="evenodd"/><path d="M457.5 328.5 463.86 328.5" stroke="#2F5597" stroke-width="1.33333" stroke-miterlimit="8" fill="none" fill-rule="evenodd"/><path d="M457.5 307.5 463.86 307.5" stroke="#2F5597" stroke-width="1.33333" stroke-miterlimit="8" fill="none" fill-rule="evenodd"/><path d="M0 0 6.35979 21.1332" stroke="#2F5597" stroke-width="1.33333" stroke-miterlimit="8" fill="none" fill-rule="evenodd" transform="matrix(1 0 0 -1 457.5 328.633)"/><path d="M0 0 6.35979 20.5702" stroke="#2F5597" stroke-width="1.33333" stroke-miterlimit="8" fill="none" fill-rule="evenodd" transform="matrix(-1 0 0 1 463.86 328.5)"/><path d="M457.5 328.5 463.86 349.07" stroke="#2F5597" stroke-width="1.33333" stroke-miterlimit="8" fill="none" fill-rule="evenodd"/><path d="M457.5 349.5 463.86 349.5" stroke="#2F5597" stroke-width="1.33333" stroke-miterlimit="8" fill="none" fill-rule="evenodd"/><path d="M457.5 307.5 463.86 348.64" stroke="#2F5597" stroke-width="1.33333" stroke-miterlimit="8" fill="none" fill-rule="evenodd"/><path d="M0 0 6.35979 41.1403" stroke="#2F5597" stroke-width="1.33333" stroke-miterlimit="8" fill="none" fill-rule="evenodd" transform="matrix(1 0 0 -1 457.5 348.64)"/><path d="M479.5 307.5 485.86 328.07" stroke="#2F5597" stroke-width="1.33333" stroke-miterlimit="8" fill="none" fill-rule="evenodd"/><path d="M479.5 328.5 485.86 328.5" stroke="#2F5597" stroke-width="1.33333" stroke-miterlimit="8" fill="none" fill-rule="evenodd"/><path d="M479.5 307.5 485.86 307.5" stroke="#2F5597" stroke-width="1.33333" stroke-miterlimit="8" fill="none" fill-rule="evenodd"/><path d="M0 0 6.35979 21.1332" stroke="#2F5597" stroke-width="1.33333" stroke-miterlimit="8" fill="none" fill-rule="evenodd" transform="matrix(1 0 0 -1 479.5 328.633)"/><path d="M0 0 6.35979 20.5702" stroke="#2F5597" stroke-width="1.33333" stroke-miterlimit="8" fill="none" fill-rule="evenodd" transform="matrix(-1 0 0 1 485.86 328.5)"/><path d="M479.5 328.5 485.86 349.07" stroke="#2F5597" stroke-width="1.33333" stroke-miterlimit="8" fill="none" fill-rule="evenodd"/><path d="M479.5 349.5 485.86 349.5" stroke="#2F5597" stroke-width="1.33333" stroke-miterlimit="8" fill="none" fill-rule="evenodd"/><path d="M479.5 307.5 485.86 348.64" stroke="#2F5597" stroke-width="1.33333" stroke-miterlimit="8" fill="none" fill-rule="evenodd"/><path d="M0 0 6.35979 41.1403" stroke="#2F5597" stroke-width="1.33333" stroke-miterlimit="8" fill="none" fill-rule="evenodd" transform="matrix(1 0 0 -1 479.5 348.64)"/><text font-family="Arial,Arial_MSFontService,sans-serif" font-weight="700" font-size="24" transform="translate(381.578 336)">MLP</text><rect x="375" y="406" width="138" height="73" stroke="#2F528F" stroke-width="6" stroke-miterlimit="8" fill="none"/><path d="M440.5 422.5C440.5 418.082 444.306 414.5 449 414.5 453.694 414.5 457.5 418.082 457.5 422.5 457.5 426.918 453.694 430.5 449 430.5 444.306 430.5 440.5 426.918 440.5 422.5Z" stroke="#2F528F" stroke-width="3" stroke-miterlimit="8" fill="none" fill-rule="evenodd"/><path d="M440.5 443.5C440.5 439.082 444.306 435.5 449 435.5 453.694 435.5 457.5 439.082 457.5 443.5 457.5 447.918 453.694 451.5 449 451.5 444.306 451.5 440.5 447.918 440.5 443.5Z" stroke="#2F528F" stroke-width="3" stroke-miterlimit="8" fill="none" fill-rule="evenodd"/><path d="M440.5 463.5C440.5 459.082 444.306 455.5 449 455.5 453.694 455.5 457.5 459.082 457.5 463.5 457.5 467.918 453.694 471.5 449 471.5 444.306 471.5 440.5 467.918 440.5 463.5Z" stroke="#2F528F" stroke-width="3" stroke-miterlimit="8" fill="none" fill-rule="evenodd"/><path d="M463.5 422.5C463.5 418.082 467.082 414.5 471.5 414.5 475.918 414.5 479.5 418.082 479.5 422.5 479.5 426.918 475.918 430.5 471.5 430.5 467.082 430.5 463.5 426.918 463.5 422.5Z" stroke="#2F528F" stroke-width="3" stroke-miterlimit="8" fill="none" fill-rule="evenodd"/><path d="M463.5 443.5C463.5 439.082 467.082 435.5 471.5 435.5 475.918 435.5 479.5 439.082 479.5 443.5 479.5 447.918 475.918 451.5 471.5 451.5 467.082 451.5 463.5 447.918 463.5 443.5Z" stroke="#2F528F" stroke-width="3" stroke-miterlimit="8" fill="none" fill-rule="evenodd"/><path d="M463.5 463.5C463.5 459.082 467.082 455.5 471.5 455.5 475.918 455.5 479.5 459.082 479.5 463.5 479.5 467.918 475.918 471.5 471.5 471.5 467.082 471.5 463.5 467.918 463.5 463.5Z" stroke="#2F528F" stroke-width="3" stroke-miterlimit="8" fill="none" fill-rule="evenodd"/><path d="M486.5 422.5C486.5 418.082 490.082 414.5 494.5 414.5 498.918 414.5 502.5 418.082 502.5 422.5 502.5 426.918 498.918 430.5 494.5 430.5 490.082 430.5 486.5 426.918 486.5 422.5Z" stroke="#2F528F" stroke-width="3" stroke-miterlimit="8" fill="none" fill-rule="evenodd"/><path d="M486.5 443.5C486.5 439.082 490.082 435.5 494.5 435.5 498.918 435.5 502.5 439.082 502.5 443.5 502.5 447.918 498.918 451.5 494.5 451.5 490.082 451.5 486.5 447.918 486.5 443.5Z" stroke="#2F528F" stroke-width="3" stroke-miterlimit="8" fill="none" fill-rule="evenodd"/><path d="M486.5 463.5C486.5 459.082 490.082 455.5 494.5 455.5 498.918 455.5 502.5 459.082 502.5 463.5 502.5 467.918 498.918 471.5 494.5 471.5 490.082 471.5 486.5 467.918 486.5 463.5Z" stroke="#2F528F" stroke-width="3" stroke-miterlimit="8" fill="none" fill-rule="evenodd"/><path d="M457.5 422.5 463.86 443.07" stroke="#2F5597" stroke-width="1.33333" stroke-miterlimit="8" fill="none" fill-rule="evenodd"/><path d="M457.5 443.5 463.86 443.5" stroke="#2F5597" stroke-width="1.33333" stroke-miterlimit="8" fill="none" fill-rule="evenodd"/><path d="M457.5 422.5 463.86 422.5" stroke="#2F5597" stroke-width="1.33333" stroke-miterlimit="8" fill="none" fill-rule="evenodd"/><path d="M0 0 6.35979 21.1332" stroke="#2F5597" stroke-width="1.33333" stroke-miterlimit="8" fill="none" fill-rule="evenodd" transform="matrix(1 0 0 -1 457.5 443.633)"/><path d="M0 0 6.35979 20.5702" stroke="#2F5597" stroke-width="1.33333" stroke-miterlimit="8" fill="none" fill-rule="evenodd" transform="matrix(-1 0 0 1 463.86 443.5)"/><path d="M457.5 443.5 463.86 464.07" stroke="#2F5597" stroke-width="1.33333" stroke-miterlimit="8" fill="none" fill-rule="evenodd"/><path d="M457.5 463.5 463.86 463.5" stroke="#2F5597" stroke-width="1.33333" stroke-miterlimit="8" fill="none" fill-rule="evenodd"/><path d="M457.5 422.5 463.86 463.64" stroke="#2F5597" stroke-width="1.33333" stroke-miterlimit="8" fill="none" fill-rule="evenodd"/><path d="M0 0 6.35979 41.1403" stroke="#2F5597" stroke-width="1.33333" stroke-miterlimit="8" fill="none" fill-rule="evenodd" transform="matrix(1 0 0 -1 457.5 463.64)"/><path d="M479.5 422.5 485.86 443.07" stroke="#2F5597" stroke-width="1.33333" stroke-miterlimit="8" fill="none" fill-rule="evenodd"/><path d="M479.5 443.5 485.86 443.5" stroke="#2F5597" stroke-width="1.33333" stroke-miterlimit="8" fill="none" fill-rule="evenodd"/><path d="M479.5 422.5 485.86 422.5" stroke="#2F5597" stroke-width="1.33333" stroke-miterlimit="8" fill="none" fill-rule="evenodd"/><path d="M0 0 6.35979 21.1332" stroke="#2F5597" stroke-width="1.33333" stroke-miterlimit="8" fill="none" fill-rule="evenodd" transform="matrix(1 0 0 -1 479.5 443.633)"/><path d="M0 0 6.35979 20.5702" stroke="#2F5597" stroke-width="1.33333" stroke-miterlimit="8" fill="none" fill-rule="evenodd" transform="matrix(-1 0 0 1 485.86 443.5)"/><path d="M479.5 443.5 485.86 464.07" stroke="#2F5597" stroke-width="1.33333" stroke-miterlimit="8" fill="none" fill-rule="evenodd"/><path d="M479.5 463.5 485.86 463.5" stroke="#2F5597" stroke-width="1.33333" stroke-miterlimit="8" fill="none" fill-rule="evenodd"/><path d="M479.5 422.5 485.86 463.64" stroke="#2F5597" stroke-width="1.33333" stroke-miterlimit="8" fill="none" fill-rule="evenodd"/><path d="M0 0 6.35979 41.1403" stroke="#2F5597" stroke-width="1.33333" stroke-miterlimit="8" fill="none" fill-rule="evenodd" transform="matrix(1 0 0 -1 479.5 463.64)"/><text font-family="Arial,Arial_MSFontService,sans-serif" font-weight="700" font-size="24" transform="translate(381.578 451)">MLP</text><rect x="375" y="521" width="138" height="72" stroke="#2F528F" stroke-width="6" stroke-miterlimit="8" fill="none"/><path d="M440.5 537C440.5 532.306 444.306 528.5 449 528.5 453.694 528.5 457.5 532.306 457.5 537 457.5 541.694 453.694 545.5 449 545.5 444.306 545.5 440.5 541.694 440.5 537Z" stroke="#2F528F" stroke-width="3" stroke-miterlimit="8" fill="none" fill-rule="evenodd"/><path d="M440.5 557.5C440.5 553.082 444.306 549.5 449 549.5 453.694 549.5 457.5 553.082 457.5 557.5 457.5 561.918 453.694 565.5 449 565.5 444.306 565.5 440.5 561.918 440.5 557.5Z" stroke="#2F528F" stroke-width="3" stroke-miterlimit="8" fill="none" fill-rule="evenodd"/><path d="M440.5 578.5C440.5 574.082 444.306 570.5 449 570.5 453.694 570.5 457.5 574.082 457.5 578.5 457.5 582.918 453.694 586.5 449 586.5 444.306 586.5 440.5 582.918 440.5 578.5Z" stroke="#2F528F" stroke-width="3" stroke-miterlimit="8" fill="none" fill-rule="evenodd"/><path d="M463.5 537C463.5 532.306 467.082 528.5 471.5 528.5 475.918 528.5 479.5 532.306 479.5 537 479.5 541.694 475.918 545.5 471.5 545.5 467.082 545.5 463.5 541.694 463.5 537Z" stroke="#2F528F" stroke-width="3" stroke-miterlimit="8" fill="none" fill-rule="evenodd"/><path d="M463.5 557.5C463.5 553.082 467.082 549.5 471.5 549.5 475.918 549.5 479.5 553.082 479.5 557.5 479.5 561.918 475.918 565.5 471.5 565.5 467.082 565.5 463.5 561.918 463.5 557.5Z" stroke="#2F528F" stroke-width="3" stroke-miterlimit="8" fill="none" fill-rule="evenodd"/><path d="M463.5 578.5C463.5 574.082 467.082 570.5 471.5 570.5 475.918 570.5 479.5 574.082 479.5 578.5 479.5 582.918 475.918 586.5 471.5 586.5 467.082 586.5 463.5 582.918 463.5 578.5Z" stroke="#2F528F" stroke-width="3" stroke-miterlimit="8" fill="none" fill-rule="evenodd"/><path d="M486.5 537C486.5 532.306 490.082 528.5 494.5 528.5 498.918 528.5 502.5 532.306 502.5 537 502.5 541.694 498.918 545.5 494.5 545.5 490.082 545.5 486.5 541.694 486.5 537Z" stroke="#2F528F" stroke-width="3" stroke-miterlimit="8" fill="none" fill-rule="evenodd"/><path d="M486.5 557.5C486.5 553.082 490.082 549.5 494.5 549.5 498.918 549.5 502.5 553.082 502.5 557.5 502.5 561.918 498.918 565.5 494.5 565.5 490.082 565.5 486.5 561.918 486.5 557.5Z" stroke="#2F528F" stroke-width="3" stroke-miterlimit="8" fill="none" fill-rule="evenodd"/><path d="M486.5 578.5C486.5 574.082 490.082 570.5 494.5 570.5 498.918 570.5 502.5 574.082 502.5 578.5 502.5 582.918 498.918 586.5 494.5 586.5 490.082 586.5 486.5 582.918 486.5 578.5Z" stroke="#2F528F" stroke-width="3" stroke-miterlimit="8" fill="none" fill-rule="evenodd"/><path d="M457.5 537.5 463.86 558.07" stroke="#2F5597" stroke-width="1.33333" stroke-miterlimit="8" fill="none" fill-rule="evenodd"/><path d="M457.5 557.5 463.86 557.5" stroke="#2F5597" stroke-width="1.33333" stroke-miterlimit="8" fill="none" fill-rule="evenodd"/><path d="M457.5 537.5 463.86 537.5" stroke="#2F5597" stroke-width="1.33333" stroke-miterlimit="8" fill="none" fill-rule="evenodd"/><path d="M0 0 6.35979 21.1332" stroke="#2F5597" stroke-width="1.33333" stroke-miterlimit="8" fill="none" fill-rule="evenodd" transform="matrix(1 0 0 -1 457.5 557.633)"/><path d="M0 0 6.35979 20.5702" stroke="#2F5597" stroke-width="1.33333" stroke-miterlimit="8" fill="none" fill-rule="evenodd" transform="matrix(-1 0 0 1 463.86 557.5)"/><path d="M457.5 557.5 463.86 578.07" stroke="#2F5597" stroke-width="1.33333" stroke-miterlimit="8" fill="none" fill-rule="evenodd"/><path d="M457.5 578.5 463.86 578.5" stroke="#2F5597" stroke-width="1.33333" stroke-miterlimit="8" fill="none" fill-rule="evenodd"/><path d="M457.5 537.5 463.86 578.64" stroke="#2F5597" stroke-width="1.33333" stroke-miterlimit="8" fill="none" fill-rule="evenodd"/><path d="M0 0 6.35979 41.1403" stroke="#2F5597" stroke-width="1.33333" stroke-miterlimit="8" fill="none" fill-rule="evenodd" transform="matrix(1 0 0 -1 457.5 578.64)"/><path d="M479.5 537.5 485.86 558.07" stroke="#2F5597" stroke-width="1.33333" stroke-miterlimit="8" fill="none" fill-rule="evenodd"/><path d="M479.5 557.5 485.86 557.5" stroke="#2F5597" stroke-width="1.33333" stroke-miterlimit="8" fill="none" fill-rule="evenodd"/><path d="M479.5 537.5 485.86 537.5" stroke="#2F5597" stroke-width="1.33333" stroke-miterlimit="8" fill="none" fill-rule="evenodd"/><path d="M0 0 6.35979 21.1332" stroke="#2F5597" stroke-width="1.33333" stroke-miterlimit="8" fill="none" fill-rule="evenodd" transform="matrix(1 0 0 -1 479.5 557.633)"/><path d="M0 0 6.35979 20.5702" stroke="#2F5597" stroke-width="1.33333" stroke-miterlimit="8" fill="none" fill-rule="evenodd" transform="matrix(-1 0 0 1 485.86 557.5)"/><path d="M479.5 557.5 485.86 578.07" stroke="#2F5597" stroke-width="1.33333" stroke-miterlimit="8" fill="none" fill-rule="evenodd"/><path d="M479.5 578.5 485.86 578.5" stroke="#2F5597" stroke-width="1.33333" stroke-miterlimit="8" fill="none" fill-rule="evenodd"/><path d="M479.5 537.5 485.86 578.64" stroke="#2F5597" stroke-width="1.33333" stroke-miterlimit="8" fill="none" fill-rule="evenodd"/><path d="M0 0 6.35979 41.1403" stroke="#2F5597" stroke-width="1.33333" stroke-miterlimit="8" fill="none" fill-rule="evenodd" transform="matrix(1 0 0 -1 479.5 578.64)"/><text font-family="Arial,Arial_MSFontService,sans-serif" font-weight="700" font-size="24" transform="translate(381.578 566)">MLP</text><rect x="375" y="637" width="138" height="73" stroke="#2F528F" stroke-width="6" stroke-miterlimit="8" fill="none"/><path d="M440.5 653.5C440.5 649.082 444.306 645.5 449 645.5 453.694 645.5 457.5 649.082 457.5 653.5 457.5 657.918 453.694 661.5 449 661.5 444.306 661.5 440.5 657.918 440.5 653.5Z" stroke="#2F528F" stroke-width="3" stroke-miterlimit="8" fill="none" fill-rule="evenodd"/><path d="M440.5 674.5C440.5 670.082 444.306 666.5 449 666.5 453.694 666.5 457.5 670.082 457.5 674.5 457.5 678.918 453.694 682.5 449 682.5 444.306 682.5 440.5 678.918 440.5 674.5Z" stroke="#2F528F" stroke-width="3" stroke-miterlimit="8" fill="none" fill-rule="evenodd"/><path d="M440.5 694.5C440.5 690.082 444.306 686.5 449 686.5 453.694 686.5 457.5 690.082 457.5 694.5 457.5 698.918 453.694 702.5 449 702.5 444.306 702.5 440.5 698.918 440.5 694.5Z" stroke="#2F528F" stroke-width="3" stroke-miterlimit="8" fill="none" fill-rule="evenodd"/><path d="M463.5 653.5C463.5 649.082 467.082 645.5 471.5 645.5 475.918 645.5 479.5 649.082 479.5 653.5 479.5 657.918 475.918 661.5 471.5 661.5 467.082 661.5 463.5 657.918 463.5 653.5Z" stroke="#2F528F" stroke-width="3" stroke-miterlimit="8" fill="none" fill-rule="evenodd"/><path d="M463.5 674.5C463.5 670.082 467.082 666.5 471.5 666.5 475.918 666.5 479.5 670.082 479.5 674.5 479.5 678.918 475.918 682.5 471.5 682.5 467.082 682.5 463.5 678.918 463.5 674.5Z" stroke="#2F528F" stroke-width="3" stroke-miterlimit="8" fill="none" fill-rule="evenodd"/><path d="M463.5 694.5C463.5 690.082 467.082 686.5 471.5 686.5 475.918 686.5 479.5 690.082 479.5 694.5 479.5 698.918 475.918 702.5 471.5 702.5 467.082 702.5 463.5 698.918 463.5 694.5Z" stroke="#2F528F" stroke-width="3" stroke-miterlimit="8" fill="none" fill-rule="evenodd"/><path d="M486.5 653.5C486.5 649.082 490.082 645.5 494.5 645.5 498.918 645.5 502.5 649.082 502.5 653.5 502.5 657.918 498.918 661.5 494.5 661.5 490.082 661.5 486.5 657.918 486.5 653.5Z" stroke="#2F528F" stroke-width="3" stroke-miterlimit="8" fill="none" fill-rule="evenodd"/><path d="M486.5 674.5C486.5 670.082 490.082 666.5 494.5 666.5 498.918 666.5 502.5 670.082 502.5 674.5 502.5 678.918 498.918 682.5 494.5 682.5 490.082 682.5 486.5 678.918 486.5 674.5Z" stroke="#2F528F" stroke-width="3" stroke-miterlimit="8" fill="none" fill-rule="evenodd"/><path d="M486.5 694.5C486.5 690.082 490.082 686.5 494.5 686.5 498.918 686.5 502.5 690.082 502.5 694.5 502.5 698.918 498.918 702.5 494.5 702.5 490.082 702.5 486.5 698.918 486.5 694.5Z" stroke="#2F528F" stroke-width="3" stroke-miterlimit="8" fill="none" fill-rule="evenodd"/><path d="M457.5 653.5 463.86 674.07" stroke="#2F5597" stroke-width="1.33333" stroke-miterlimit="8" fill="none" fill-rule="evenodd"/><path d="M457.5 674.5 463.86 674.5" stroke="#2F5597" stroke-width="1.33333" stroke-miterlimit="8" fill="none" fill-rule="evenodd"/><path d="M457.5 653.5 463.86 653.5" stroke="#2F5597" stroke-width="1.33333" stroke-miterlimit="8" fill="none" fill-rule="evenodd"/><path d="M0 0 6.35979 21.1332" stroke="#2F5597" stroke-width="1.33333" stroke-miterlimit="8" fill="none" fill-rule="evenodd" transform="matrix(1 0 0 -1 457.5 674.633)"/><path d="M0 0 6.35979 20.5702" stroke="#2F5597" stroke-width="1.33333" stroke-miterlimit="8" fill="none" fill-rule="evenodd" transform="matrix(-1 0 0 1 463.86 674.5)"/><path d="M457.5 674.5 463.86 695.07" stroke="#2F5597" stroke-width="1.33333" stroke-miterlimit="8" fill="none" fill-rule="evenodd"/><path d="M457.5 694.5 463.86 694.5" stroke="#2F5597" stroke-width="1.33333" stroke-miterlimit="8" fill="none" fill-rule="evenodd"/><path d="M457.5 653.5 463.86 694.64" stroke="#2F5597" stroke-width="1.33333" stroke-miterlimit="8" fill="none" fill-rule="evenodd"/><path d="M0 0 6.35979 41.1403" stroke="#2F5597" stroke-width="1.33333" stroke-miterlimit="8" fill="none" fill-rule="evenodd" transform="matrix(1 0 0 -1 457.5 694.64)"/><path d="M479.5 653.5 485.86 674.07" stroke="#2F5597" stroke-width="1.33333" stroke-miterlimit="8" fill="none" fill-rule="evenodd"/><path d="M479.5 674.5 485.86 674.5" stroke="#2F5597" stroke-width="1.33333" stroke-miterlimit="8" fill="none" fill-rule="evenodd"/><path d="M479.5 653.5 485.86 653.5" stroke="#2F5597" stroke-width="1.33333" stroke-miterlimit="8" fill="none" fill-rule="evenodd"/><path d="M0 0 6.35979 21.1332" stroke="#2F5597" stroke-width="1.33333" stroke-miterlimit="8" fill="none" fill-rule="evenodd" transform="matrix(1 0 0 -1 479.5 674.633)"/><path d="M0 0 6.35979 20.5702" stroke="#2F5597" stroke-width="1.33333" stroke-miterlimit="8" fill="none" fill-rule="evenodd" transform="matrix(-1 0 0 1 485.86 674.5)"/><path d="M479.5 674.5 485.86 695.07" stroke="#2F5597" stroke-width="1.33333" stroke-miterlimit="8" fill="none" fill-rule="evenodd"/><path d="M479.5 694.5 485.86 694.5" stroke="#2F5597" stroke-width="1.33333" stroke-miterlimit="8" fill="none" fill-rule="evenodd"/><path d="M479.5 653.5 485.86 694.64" stroke="#2F5597" stroke-width="1.33333" stroke-miterlimit="8" fill="none" fill-rule="evenodd"/><path d="M0 0 6.35979 41.1403" stroke="#2F5597" stroke-width="1.33333" stroke-miterlimit="8" fill="none" fill-rule="evenodd" transform="matrix(1 0 0 -1 479.5 694.64)"/><text font-family="Arial,Arial_MSFontService,sans-serif" font-weight="700" font-size="24" transform="translate(381.578 682)">MLP</text><path d="M223.032 94.0002 357.233 95.4301 357.169 101.43 222.968 99.9998ZM354.297 89.3984 372.2 98.5897 354.105 107.397Z" fill="#00B0F0"/><path d="M222.008 325 357.129 325.359 357.113 331.359 221.992 331ZM354.145 319.351 372.121 328.399 354.098 337.351Z" fill="#00B0F0"/><path d="M0.00639481-2.99999 135.128-2.71197 135.115 3.28802-0.00639481 2.99999ZM132.141-8.71835 150.121 0.32 132.102 9.28161Z" fill="#00B0F0" transform="matrix(1 0 0 -1 222 443.32)"/><path d="M0.0291551-2.99986 135.151-1.68663 135.093 4.31309-0.0291551 2.99986ZM132.21-7.7155 150.121 1.459 132.035 10.2836Z" fill="#00B0F0" transform="matrix(1 0 0 -1 222 558.459)"/><path d="M223.006 670 357.206 670.258 357.194 676.258 222.994 676ZM354.217 664.253 372.2 673.287 354.183 682.253Z" fill="#00B0F0"/><text font-family="DengXian,DengXian_MSFontService,sans-serif" font-weight="700" font-size="43" transform="translate(423.332 46)">Encoder</text><path d="M713 436.168C713 412.879 731.879 394 755.168 394L1278.83 394C1302.12 394 1321 412.879 1321 436.168L1321 604.832C1321 628.121 1302.12 647 1278.83 647L755.168 647C731.879 647 713 628.121 713 604.832Z" stroke="#FF0000" stroke-width="8" stroke-miterlimit="8" fill="#FFFFFF" fill-rule="evenodd"/><text font-family="DengXian,DengXian_MSFontService,sans-serif" font-weight="700" font-size="43" transform="translate(761.17 453)">RGCN</text><path d="M513 325 629.794 325 629.794 529.286 626.794 526.286 725.589 526.286 725.589 532.286 623.794 532.286 623.794 328 626.794 331 513 331ZM722.589 520.286 740.589 529.286 722.589 538.286Z" fill="#00B0F0"/><path d="M741.5 529.5C741.5 509.618 757.394 493.5 777 493.5 796.606 493.5 812.5 509.618 812.5 529.5 812.5 549.382 796.606 565.5 777 565.5 757.394 565.5 741.5 549.382 741.5 529.5Z" stroke="#2F528F" stroke-width="1.33333" stroke-miterlimit="8" fill="#4472C4" fill-rule="evenodd"/><text fill="#FFFFFF" font-family="DengXian,DengXian_MSFontService,sans-serif" font-weight="400" font-size="80" transform="translate(749.828 556)">+</text><path d="M513 440 629.794 440 629.794 529.488 626.794 526.488 725.589 526.488 725.589 532.488 623.794 532.488 623.794 443 626.794 446 513 446ZM722.589 520.488 740.589 529.488 722.589 538.488Z" fill="#00B0F0"/><path d="M0-3 116.794-3 116.794 27.8893 113.794 24.8893 212.589 24.8893 212.589 30.8893 110.794 30.8893 110.794 0 113.794 3 0 3ZM209.589 18.8893 227.589 27.8893 209.589 36.8893Z" fill="#00B0F0" transform="matrix(1 0 0 -1 513 556.889)"/><path d="M0-3 116.794-3 116.794 144.465 113.794 141.465 212.589 141.465 212.589 147.465 110.794 147.465 110.794 0 113.794 3 0 3ZM209.589 135.465 227.589 144.465 209.589 153.465Z" fill="#00B0F0" transform="matrix(1 0 0 -1 513 673.465)"/><rect x="851" y="493" width="138" height="72" stroke="#2F528F" stroke-width="6" stroke-miterlimit="8" fill="none"/><path d="M916.5 509C916.5 504.306 920.306 500.5 925 500.5 929.694 500.5 933.5 504.306 933.5 509 933.5 513.694 929.694 517.5 925 517.5 920.306 517.5 916.5 513.694 916.5 509Z" stroke="#2F528F" stroke-width="3" stroke-miterlimit="8" fill="none" fill-rule="evenodd"/><path d="M916.5 529.5C916.5 525.082 920.306 521.5 925 521.5 929.694 521.5 933.5 525.082 933.5 529.5 933.5 533.918 929.694 537.5 925 537.5 920.306 537.5 916.5 533.918 916.5 529.5Z" stroke="#2F528F" stroke-width="3" stroke-miterlimit="8" fill="none" fill-rule="evenodd"/><path d="M916.5 550.5C916.5 546.082 920.306 542.5 925 542.5 929.694 542.5 933.5 546.082 933.5 550.5 933.5 554.918 929.694 558.5 925 558.5 920.306 558.5 916.5 554.918 916.5 550.5Z" stroke="#2F528F" stroke-width="3" stroke-miterlimit="8" fill="none" fill-rule="evenodd"/><path d="M939.5 509C939.5 504.306 943.082 500.5 947.5 500.5 951.918 500.5 955.5 504.306 955.5 509 955.5 513.694 951.918 517.5 947.5 517.5 943.082 517.5 939.5 513.694 939.5 509Z" stroke="#2F528F" stroke-width="3" stroke-miterlimit="8" fill="none" fill-rule="evenodd"/><path d="M939.5 529.5C939.5 525.082 943.082 521.5 947.5 521.5 951.918 521.5 955.5 525.082 955.5 529.5 955.5 533.918 951.918 537.5 947.5 537.5 943.082 537.5 939.5 533.918 939.5 529.5Z" stroke="#2F528F" stroke-width="3" stroke-miterlimit="8" fill="none" fill-rule="evenodd"/><path d="M939.5 550.5C939.5 546.082 943.082 542.5 947.5 542.5 951.918 542.5 955.5 546.082 955.5 550.5 955.5 554.918 951.918 558.5 947.5 558.5 943.082 558.5 939.5 554.918 939.5 550.5Z" stroke="#2F528F" stroke-width="3" stroke-miterlimit="8" fill="none" fill-rule="evenodd"/><path d="M962.5 509C962.5 504.306 966.082 500.5 970.5 500.5 974.918 500.5 978.5 504.306 978.5 509 978.5 513.694 974.918 517.5 970.5 517.5 966.082 517.5 962.5 513.694 962.5 509Z" stroke="#2F528F" stroke-width="3" stroke-miterlimit="8" fill="none" fill-rule="evenodd"/><path d="M962.5 529.5C962.5 525.082 966.082 521.5 970.5 521.5 974.918 521.5 978.5 525.082 978.5 529.5 978.5 533.918 974.918 537.5 970.5 537.5 966.082 537.5 962.5 533.918 962.5 529.5Z" stroke="#2F528F" stroke-width="3" stroke-miterlimit="8" fill="none" fill-rule="evenodd"/><path d="M962.5 550.5C962.5 546.082 966.082 542.5 970.5 542.5 974.918 542.5 978.5 546.082 978.5 550.5 978.5 554.918 974.918 558.5 970.5 558.5 966.082 558.5 962.5 554.918 962.5 550.5Z" stroke="#2F528F" stroke-width="3" stroke-miterlimit="8" fill="none" fill-rule="evenodd"/><path d="M933.5 509.5 939.86 530.07" stroke="#2F5597" stroke-width="1.33333" stroke-miterlimit="8" fill="none" fill-rule="evenodd"/><path d="M933.5 529.5 939.86 529.5" stroke="#2F5597" stroke-width="1.33333" stroke-miterlimit="8" fill="none" fill-rule="evenodd"/><path d="M933.5 509.5 939.86 509.5" stroke="#2F5597" stroke-width="1.33333" stroke-miterlimit="8" fill="none" fill-rule="evenodd"/><path d="M0 0 6.35979 21.1332" stroke="#2F5597" stroke-width="1.33333" stroke-miterlimit="8" fill="none" fill-rule="evenodd" transform="matrix(1 0 0 -1 933.5 529.633)"/><path d="M0 0 6.35979 20.5702" stroke="#2F5597" stroke-width="1.33333" stroke-miterlimit="8" fill="none" fill-rule="evenodd" transform="matrix(-1 0 0 1 939.86 529.5)"/><path d="M933.5 529.5 939.86 550.07" stroke="#2F5597" stroke-width="1.33333" stroke-miterlimit="8" fill="none" fill-rule="evenodd"/><path d="M933.5 550.5 939.86 550.5" stroke="#2F5597" stroke-width="1.33333" stroke-miterlimit="8" fill="none" fill-rule="evenodd"/><path d="M933.5 509.5 939.86 550.64" stroke="#2F5597" stroke-width="1.33333" stroke-miterlimit="8" fill="none" fill-rule="evenodd"/><path d="M0 0 6.35979 41.1403" stroke="#2F5597" stroke-width="1.33333" stroke-miterlimit="8" fill="none" fill-rule="evenodd" transform="matrix(1 0 0 -1 933.5 550.64)"/><path d="M955.5 509.5 961.86 530.07" stroke="#2F5597" stroke-width="1.33333" stroke-miterlimit="8" fill="none" fill-rule="evenodd"/><path d="M955.5 529.5 961.86 529.5" stroke="#2F5597" stroke-width="1.33333" stroke-miterlimit="8" fill="none" fill-rule="evenodd"/><path d="M955.5 509.5 961.86 509.5" stroke="#2F5597" stroke-width="1.33333" stroke-miterlimit="8" fill="none" fill-rule="evenodd"/><path d="M0 0 6.35979 21.1332" stroke="#2F5597" stroke-width="1.33333" stroke-miterlimit="8" fill="none" fill-rule="evenodd" transform="matrix(1 0 0 -1 955.5 529.633)"/><path d="M0 0 6.35979 20.5702" stroke="#2F5597" stroke-width="1.33333" stroke-miterlimit="8" fill="none" fill-rule="evenodd" transform="matrix(-1 0 0 1 961.86 529.5)"/><path d="M955.5 529.5 961.86 550.07" stroke="#2F5597" stroke-width="1.33333" stroke-miterlimit="8" fill="none" fill-rule="evenodd"/><path d="M955.5 550.5 961.86 550.5" stroke="#2F5597" stroke-width="1.33333" stroke-miterlimit="8" fill="none" fill-rule="evenodd"/><path d="M955.5 509.5 961.86 550.64" stroke="#2F5597" stroke-width="1.33333" stroke-miterlimit="8" fill="none" fill-rule="evenodd"/><path d="M0 0 6.35979 41.1403" stroke="#2F5597" stroke-width="1.33333" stroke-miterlimit="8" fill="none" fill-rule="evenodd" transform="matrix(1 0 0 -1 955.5 550.64)"/><text font-family="Arial,Arial_MSFontService,sans-serif" font-weight="700" font-size="24" transform="translate(857.752 538)">MLP</text><path d="M812.016 526 832.793 526.107 832.762 532.107 811.984 532ZM829.824 520.092 847.777 529.185 829.731 538.092Z" fill="#00B0F0"/><path d="M1038.5 529C1038.5 509.394 1054.39 493.5 1074 493.5 1093.61 493.5 1109.5 509.394 1109.5 529 1109.5 548.606 1093.61 564.5 1074 564.5 1054.39 564.5 1038.5 548.606 1038.5 529Z" stroke="#2F528F" stroke-width="1.33333" stroke-miterlimit="8" fill="#4472C4" fill-rule="evenodd"/><text fill="#FFFFFF" font-family="DengXian,DengXian_MSFontService,sans-serif" font-weight="400" font-size="80" transform="translate(1046.82 555)">+</text><path d="M656 210 1076.59 210 1076.59 477.829 1070.59 477.829 1070.59 213 1073.59 216 656 216ZM1082.59 474.829 1073.59 492.829 1064.59 474.829Z" fill="#00B0F0"/><path d="M513 96 1076.46 96 1076.46 477.951 1070.46 477.951 1070.46 99 1073.46 102 513 102ZM1082.46 474.951 1073.46 492.951 1064.46 474.951Z" fill="#00B0F0"/><path d="M0.0372946-2.99977 33.4426-2.58446 33.3681 3.41508-0.0372946 2.99977ZM30.5175-8.62129 48.4042 0.601785 30.2937 9.37732Z" fill="#00B0F0" transform="matrix(1 0 0 -1 989 528.602)"/><rect x="1159" y="492" width="138" height="72" stroke="#2F528F" stroke-width="6" stroke-miterlimit="8" fill="none"/><path d="M1224.5 508C1224.5 503.306 1228.31 499.5 1233 499.5 1237.69 499.5 1241.5 503.306 1241.5 508 1241.5 512.694 1237.69 516.5 1233 516.5 1228.31 516.5 1224.5 512.694 1224.5 508Z" stroke="#2F528F" stroke-width="3" stroke-miterlimit="8" fill="none" fill-rule="evenodd"/><path d="M1224.5 528.5C1224.5 524.082 1228.31 520.5 1233 520.5 1237.69 520.5 1241.5 524.082 1241.5 528.5 1241.5 532.918 1237.69 536.5 1233 536.5 1228.31 536.5 1224.5 532.918 1224.5 528.5Z" stroke="#2F528F" stroke-width="3" stroke-miterlimit="8" fill="none" fill-rule="evenodd"/><path d="M1224.5 549.5C1224.5 545.082 1228.31 541.5 1233 541.5 1237.69 541.5 1241.5 545.082 1241.5 549.5 1241.5 553.918 1237.69 557.5 1233 557.5 1228.31 557.5 1224.5 553.918 1224.5 549.5Z" stroke="#2F528F" stroke-width="3" stroke-miterlimit="8" fill="none" fill-rule="evenodd"/><path d="M1247.5 508C1247.5 503.306 1251.08 499.5 1255.5 499.5 1259.92 499.5 1263.5 503.306 1263.5 508 1263.5 512.694 1259.92 516.5 1255.5 516.5 1251.08 516.5 1247.5 512.694 1247.5 508Z" stroke="#2F528F" stroke-width="3" stroke-miterlimit="8" fill="none" fill-rule="evenodd"/><path d="M1247.5 528.5C1247.5 524.082 1251.08 520.5 1255.5 520.5 1259.92 520.5 1263.5 524.082 1263.5 528.5 1263.5 532.918 1259.92 536.5 1255.5 536.5 1251.08 536.5 1247.5 532.918 1247.5 528.5Z" stroke="#2F528F" stroke-width="3" stroke-miterlimit="8" fill="none" fill-rule="evenodd"/><path d="M1247.5 549.5C1247.5 545.082 1251.08 541.5 1255.5 541.5 1259.92 541.5 1263.5 545.082 1263.5 549.5 1263.5 553.918 1259.92 557.5 1255.5 557.5 1251.08 557.5 1247.5 553.918 1247.5 549.5Z" stroke="#2F528F" stroke-width="3" stroke-miterlimit="8" fill="none" fill-rule="evenodd"/><path d="M1270.5 508C1270.5 503.306 1274.08 499.5 1278.5 499.5 1282.92 499.5 1286.5 503.306 1286.5 508 1286.5 512.694 1282.92 516.5 1278.5 516.5 1274.08 516.5 1270.5 512.694 1270.5 508Z" stroke="#2F528F" stroke-width="3" stroke-miterlimit="8" fill="none" fill-rule="evenodd"/><path d="M1270.5 528.5C1270.5 524.082 1274.08 520.5 1278.5 520.5 1282.92 520.5 1286.5 524.082 1286.5 528.5 1286.5 532.918 1282.92 536.5 1278.5 536.5 1274.08 536.5 1270.5 532.918 1270.5 528.5Z" stroke="#2F528F" stroke-width="3" stroke-miterlimit="8" fill="none" fill-rule="evenodd"/><path d="M1270.5 549.5C1270.5 545.082 1274.08 541.5 1278.5 541.5 1282.92 541.5 1286.5 545.082 1286.5 549.5 1286.5 553.918 1282.92 557.5 1278.5 557.5 1274.08 557.5 1270.5 553.918 1270.5 549.5Z" stroke="#2F528F" stroke-width="3" stroke-miterlimit="8" fill="none" fill-rule="evenodd"/><path d="M1241.5 508.5 1247.86 529.07" stroke="#2F5597" stroke-width="1.33333" stroke-miterlimit="8" fill="none" fill-rule="evenodd"/><path d="M1241.5 528.5 1247.86 528.5" stroke="#2F5597" stroke-width="1.33333" stroke-miterlimit="8" fill="none" fill-rule="evenodd"/><path d="M1241.5 508.5 1247.86 508.5" stroke="#2F5597" stroke-width="1.33333" stroke-miterlimit="8" fill="none" fill-rule="evenodd"/><path d="M0 0 6.35979 21.1332" stroke="#2F5597" stroke-width="1.33333" stroke-miterlimit="8" fill="none" fill-rule="evenodd" transform="matrix(1 0 0 -1 1241.5 528.633)"/><path d="M0 0 6.35979 20.5702" stroke="#2F5597" stroke-width="1.33333" stroke-miterlimit="8" fill="none" fill-rule="evenodd" transform="matrix(-1 0 0 1 1247.86 528.5)"/><path d="M1241.5 528.5 1247.86 549.07" stroke="#2F5597" stroke-width="1.33333" stroke-miterlimit="8" fill="none" fill-rule="evenodd"/><path d="M1241.5 549.5 1247.86 549.5" stroke="#2F5597" stroke-width="1.33333" stroke-miterlimit="8" fill="none" fill-rule="evenodd"/><path d="M1241.5 508.5 1247.86 549.64" stroke="#2F5597" stroke-width="1.33333" stroke-miterlimit="8" fill="none" fill-rule="evenodd"/><path d="M0 0 6.35979 41.1403" stroke="#2F5597" stroke-width="1.33333" stroke-miterlimit="8" fill="none" fill-rule="evenodd" transform="matrix(1 0 0 -1 1241.5 549.64)"/><path d="M1263.5 508.5 1269.86 529.07" stroke="#2F5597" stroke-width="1.33333" stroke-miterlimit="8" fill="none" fill-rule="evenodd"/><path d="M1263.5 528.5 1269.86 528.5" stroke="#2F5597" stroke-width="1.33333" stroke-miterlimit="8" fill="none" fill-rule="evenodd"/><path d="M1263.5 508.5 1269.86 508.5" stroke="#2F5597" stroke-width="1.33333" stroke-miterlimit="8" fill="none" fill-rule="evenodd"/><path d="M0 0 6.35979 21.1332" stroke="#2F5597" stroke-width="1.33333" stroke-miterlimit="8" fill="none" fill-rule="evenodd" transform="matrix(1 0 0 -1 1263.5 528.633)"/><path d="M0 0 6.35979 20.5702" stroke="#2F5597" stroke-width="1.33333" stroke-miterlimit="8" fill="none" fill-rule="evenodd" transform="matrix(-1 0 0 1 1269.86 528.5)"/><path d="M1263.5 528.5 1269.86 549.07" stroke="#2F5597" stroke-width="1.33333" stroke-miterlimit="8" fill="none" fill-rule="evenodd"/><path d="M1263.5 549.5 1269.86 549.5" stroke="#2F5597" stroke-width="1.33333" stroke-miterlimit="8" fill="none" fill-rule="evenodd"/><path d="M1263.5 508.5 1269.86 549.64" stroke="#2F5597" stroke-width="1.33333" stroke-miterlimit="8" fill="none" fill-rule="evenodd"/><path d="M0 0 6.35979 41.1403" stroke="#2F5597" stroke-width="1.33333" stroke-miterlimit="8" fill="none" fill-rule="evenodd" transform="matrix(1 0 0 -1 1263.5 549.64)"/><text font-family="Arial,Arial_MSFontService,sans-serif" font-weight="700" font-size="24" transform="translate(1165.81 537)">MLP</text><path d="M0.0190492-2.99994 31.8595-2.79776 31.8214 3.20212-0.0190492 2.99994ZM28.8976-8.81669 46.8401 0.297428 28.7833 9.18295Z" fill="#00B0F0" transform="matrix(1 0 0 -1 1109 528.297)"/><path d="M1297.06 525.001 1355.29 526.26 1355.16 532.259 1296.94 530.999ZM1352.42 520.197 1370.22 529.584 1352.03 538.193Z" fill="#00B0F0"/><path d="M1370 504.5C1370 497.597 1375.6 492 1382.5 492L1540.5 492C1547.4 492 1553 497.597 1553 504.5L1553 554.5C1553 561.403 1547.4 567 1540.5 567L1382.5 567C1375.6 567 1370 561.403 1370 554.5Z" stroke="#000000" stroke-width="8" stroke-miterlimit="8" fill="#FFFFFF" fill-rule="evenodd"/><text font-family="Arial,Arial_MSFontService,sans-serif" font-weight="700" font-size="43" transform="translate(1391.82 545)">Output</text></g></svg>